%TF.GenerationSoftware,KiCad,Pcbnew,7.0.9*%
%TF.CreationDate,2024-01-12T22:07:47+01:00*%
%TF.ProjectId,board,626f6172-642e-46b6-9963-61645f706362,rev?*%
%TF.SameCoordinates,Original*%
%TF.FileFunction,Soldermask,Top*%
%TF.FilePolarity,Negative*%
%FSLAX46Y46*%
G04 Gerber Fmt 4.6, Leading zero omitted, Abs format (unit mm)*
G04 Created by KiCad (PCBNEW 7.0.9) date 2024-01-12 22:07:47*
%MOMM*%
%LPD*%
G01*
G04 APERTURE LIST*
G04 Aperture macros list*
%AMRoundRect*
0 Rectangle with rounded corners*
0 $1 Rounding radius*
0 $2 $3 $4 $5 $6 $7 $8 $9 X,Y pos of 4 corners*
0 Add a 4 corners polygon primitive as box body*
4,1,4,$2,$3,$4,$5,$6,$7,$8,$9,$2,$3,0*
0 Add four circle primitives for the rounded corners*
1,1,$1+$1,$2,$3*
1,1,$1+$1,$4,$5*
1,1,$1+$1,$6,$7*
1,1,$1+$1,$8,$9*
0 Add four rect primitives between the rounded corners*
20,1,$1+$1,$2,$3,$4,$5,0*
20,1,$1+$1,$4,$5,$6,$7,0*
20,1,$1+$1,$6,$7,$8,$9,0*
20,1,$1+$1,$8,$9,$2,$3,0*%
G04 Aperture macros list end*
%ADD10RoundRect,0.225000X-0.225000X-0.250000X0.225000X-0.250000X0.225000X0.250000X-0.225000X0.250000X0*%
%ADD11RoundRect,0.150000X-0.150000X0.825000X-0.150000X-0.825000X0.150000X-0.825000X0.150000X0.825000X0*%
%ADD12R,1.700000X1.700000*%
%ADD13O,1.700000X1.700000*%
G04 APERTURE END LIST*
D10*
%TO.C,C1*%
X109745000Y-97500000D03*
X111295000Y-97500000D03*
%TD*%
D11*
%TO.C,U1*%
X112500000Y-101050000D03*
X111230000Y-101050000D03*
X109960000Y-101050000D03*
X108690000Y-101050000D03*
X108690000Y-106000000D03*
X109960000Y-106000000D03*
X111230000Y-106000000D03*
X112500000Y-106000000D03*
%TD*%
D12*
%TO.C,J1*%
X132460000Y-97740000D03*
D13*
X135000000Y-97740000D03*
X132460000Y-100280000D03*
X135000000Y-100280000D03*
X132460000Y-102820000D03*
X135000000Y-102820000D03*
X132460000Y-105360000D03*
X135000000Y-105360000D03*
X132460000Y-107900000D03*
X135000000Y-107900000D03*
X132460000Y-110440000D03*
X135000000Y-110440000D03*
X132460000Y-112980000D03*
X135000000Y-112980000D03*
X132460000Y-115520000D03*
X135000000Y-115520000D03*
X132460000Y-118060000D03*
X135000000Y-118060000D03*
X132460000Y-120600000D03*
X135000000Y-120600000D03*
%TD*%
D12*
%TO.C,J2*%
X100460000Y-97740000D03*
D13*
X103000000Y-97740000D03*
X100460000Y-100280000D03*
X103000000Y-100280000D03*
X100460000Y-102820000D03*
X103000000Y-102820000D03*
X100460000Y-105360000D03*
X103000000Y-105360000D03*
X100460000Y-107900000D03*
X103000000Y-107900000D03*
X100460000Y-110440000D03*
X103000000Y-110440000D03*
X100460000Y-112980000D03*
X103000000Y-112980000D03*
X100460000Y-115520000D03*
X103000000Y-115520000D03*
X100460000Y-118060000D03*
X103000000Y-118060000D03*
X100460000Y-120600000D03*
X103000000Y-120600000D03*
%TD*%
M02*
