%TF.GenerationSoftware,KiCad,Pcbnew,7.0.9*%
%TF.CreationDate,2024-01-12T22:07:47+01:00*%
%TF.ProjectId,board,626f6172-642e-46b6-9963-61645f706362,rev?*%
%TF.SameCoordinates,Original*%
%TF.FileFunction,Copper,L2,Bot*%
%TF.FilePolarity,Positive*%
%FSLAX46Y46*%
G04 Gerber Fmt 4.6, Leading zero omitted, Abs format (unit mm)*
G04 Created by KiCad (PCBNEW 7.0.9) date 2024-01-12 22:07:47*
%MOMM*%
%LPD*%
G01*
G04 APERTURE LIST*
%TA.AperFunction,ComponentPad*%
%ADD10R,1.700000X1.700000*%
%TD*%
%TA.AperFunction,ComponentPad*%
%ADD11O,1.700000X1.700000*%
%TD*%
%TA.AperFunction,ComponentPad*%
%ADD12O,3.599180X1.798320*%
%TD*%
%TA.AperFunction,ViaPad*%
%ADD13C,0.800000*%
%TD*%
%TA.AperFunction,Conductor*%
%ADD14C,0.250000*%
%TD*%
G04 APERTURE END LIST*
D10*
%TO.P,J1,1,Pin_1*%
%TO.N,+5V*%
X132460000Y-97740000D03*
D11*
%TO.P,J1,2,Pin_2*%
%TO.N,GND*%
X135000000Y-97740000D03*
%TO.P,J1,3,Pin_3*%
%TO.N,unconnected-(J1-Pin_3-Pad3)*%
X132460000Y-100280000D03*
%TO.P,J1,4,Pin_4*%
%TO.N,unconnected-(J1-Pin_4-Pad4)*%
X135000000Y-100280000D03*
%TO.P,J1,5,Pin_5*%
%TO.N,unconnected-(J1-Pin_5-Pad5)*%
X132460000Y-102820000D03*
%TO.P,J1,6,Pin_6*%
%TO.N,unconnected-(J1-Pin_6-Pad6)*%
X135000000Y-102820000D03*
%TO.P,J1,7,Pin_7*%
%TO.N,/SCK*%
X132460000Y-105360000D03*
%TO.P,J1,8,Pin_8*%
%TO.N,/MISO*%
X135000000Y-105360000D03*
%TO.P,J1,9,Pin_9*%
%TO.N,/MAIN_SWITCH_IN*%
X132460000Y-107900000D03*
%TO.P,J1,10,Pin_10*%
%TO.N,/CS_MAX31855*%
X135000000Y-107900000D03*
%TO.P,J1,11,Pin_11*%
%TO.N,unconnected-(J1-Pin_11-Pad11)*%
X132460000Y-110440000D03*
%TO.P,J1,12,Pin_12*%
%TO.N,/POWER_LED*%
X135000000Y-110440000D03*
%TO.P,J1,13,Pin_13*%
%TO.N,unconnected-(J1-Pin_13-Pad13)*%
X132460000Y-112980000D03*
%TO.P,J1,14,Pin_14*%
%TO.N,/SSR_OUT*%
X135000000Y-112980000D03*
%TO.P,J1,15,Pin_15*%
%TO.N,unconnected-(J1-Pin_15-Pad15)*%
X132460000Y-115520000D03*
%TO.P,J1,16,Pin_16*%
%TO.N,unconnected-(J1-Pin_16-Pad16)*%
X135000000Y-115520000D03*
%TO.P,J1,17,Pin_17*%
%TO.N,unconnected-(J1-Pin_17-Pad17)*%
X132460000Y-118060000D03*
%TO.P,J1,18,Pin_18*%
%TO.N,unconnected-(J1-Pin_18-Pad18)*%
X135000000Y-118060000D03*
%TO.P,J1,19,Pin_19*%
%TO.N,GND*%
X132460000Y-120600000D03*
%TO.P,J1,20,Pin_20*%
%TO.N,+3.3V*%
X135000000Y-120600000D03*
%TD*%
D10*
%TO.P,J2,1,Pin_1*%
%TO.N,unconnected-(J2-Pin_1-Pad1)*%
X100460000Y-97740000D03*
D11*
%TO.P,J2,2,Pin_2*%
%TO.N,unconnected-(J2-Pin_2-Pad2)*%
X103000000Y-97740000D03*
%TO.P,J2,3,Pin_3*%
%TO.N,unconnected-(J2-Pin_3-Pad3)*%
X100460000Y-100280000D03*
%TO.P,J2,4,Pin_4*%
%TO.N,unconnected-(J2-Pin_4-Pad4)*%
X103000000Y-100280000D03*
%TO.P,J2,5,Pin_5*%
%TO.N,unconnected-(J2-Pin_5-Pad5)*%
X100460000Y-102820000D03*
%TO.P,J2,6,Pin_6*%
%TO.N,unconnected-(J2-Pin_6-Pad6)*%
X103000000Y-102820000D03*
%TO.P,J2,7,Pin_7*%
%TO.N,unconnected-(J2-Pin_7-Pad7)*%
X100460000Y-105360000D03*
%TO.P,J2,8,Pin_8*%
%TO.N,unconnected-(J2-Pin_8-Pad8)*%
X103000000Y-105360000D03*
%TO.P,J2,9,Pin_9*%
%TO.N,unconnected-(J2-Pin_9-Pad9)*%
X100460000Y-107900000D03*
%TO.P,J2,10,Pin_10*%
%TO.N,unconnected-(J2-Pin_10-Pad10)*%
X103000000Y-107900000D03*
%TO.P,J2,11,Pin_11*%
%TO.N,unconnected-(J2-Pin_11-Pad11)*%
X100460000Y-110440000D03*
%TO.P,J2,12,Pin_12*%
%TO.N,unconnected-(J2-Pin_12-Pad12)*%
X103000000Y-110440000D03*
%TO.P,J2,13,Pin_13*%
%TO.N,unconnected-(J2-Pin_13-Pad13)*%
X100460000Y-112980000D03*
%TO.P,J2,14,Pin_14*%
%TO.N,unconnected-(J2-Pin_14-Pad14)*%
X103000000Y-112980000D03*
%TO.P,J2,15,Pin_15*%
%TO.N,unconnected-(J2-Pin_15-Pad15)*%
X100460000Y-115520000D03*
%TO.P,J2,16,Pin_16*%
%TO.N,unconnected-(J2-Pin_16-Pad16)*%
X103000000Y-115520000D03*
%TO.P,J2,17,Pin_17*%
%TO.N,unconnected-(J2-Pin_17-Pad17)*%
X100460000Y-118060000D03*
%TO.P,J2,18,Pin_18*%
%TO.N,unconnected-(J2-Pin_18-Pad18)*%
X103000000Y-118060000D03*
%TO.P,J2,19,Pin_19*%
%TO.N,unconnected-(J2-Pin_19-Pad19)*%
X100460000Y-120600000D03*
%TO.P,J2,20,Pin_20*%
%TO.N,unconnected-(J2-Pin_20-Pad20)*%
X103000000Y-120600000D03*
%TD*%
D12*
%TO.P,J3,a1,Pin_a1*%
%TO.N,/K_PLUS*%
X122998720Y-119280000D03*
%TO.P,J3,a2,Pin_a2*%
%TO.N,/K_MINUS*%
X122998720Y-116740000D03*
%TO.P,J3,a3,Pin_a3*%
%TO.N,/POWER_LED*%
X122998720Y-114200000D03*
%TO.P,J3,a4,Pin_a4*%
%TO.N,GND*%
X122998720Y-111660000D03*
%TO.P,J3,a5,Pin_a5*%
%TO.N,/MAIN_SWITCH_IN*%
X122998720Y-109120000D03*
%TO.P,J3,a6,Pin_a6*%
%TO.N,GND*%
X122998720Y-106580000D03*
%TO.P,J3,a7,Pin_a7*%
%TO.N,/SSR_OUT*%
X122998720Y-104040000D03*
%TO.P,J3,a8,Pin_a8*%
%TO.N,GND*%
X122998720Y-101500000D03*
%TO.P,J3,b1,Pin_b1*%
%TO.N,/K_PLUS*%
X118000000Y-119280000D03*
%TO.P,J3,b2,Pin_b2*%
%TO.N,/K_MINUS*%
X118000000Y-116740000D03*
%TO.P,J3,b3,Pin_b3*%
%TO.N,/POWER_LED*%
X118000000Y-114200000D03*
%TO.P,J3,b4,Pin_b4*%
%TO.N,GND*%
X118000000Y-111660000D03*
%TO.P,J3,b5,Pin_b5*%
%TO.N,/MAIN_SWITCH_IN*%
X118000000Y-109120000D03*
%TO.P,J3,b6,Pin_b6*%
%TO.N,GND*%
X118000000Y-106580000D03*
%TO.P,J3,b7,Pin_b7*%
%TO.N,/SSR_OUT*%
X118000000Y-104040000D03*
%TO.P,J3,b8,Pin_b8*%
%TO.N,GND*%
X118000000Y-101500000D03*
%TD*%
D13*
%TO.N,GND*%
X128000000Y-113000000D03*
%TO.N,/SCK*%
X109000000Y-107500000D03*
%TO.N,/MISO*%
X111500000Y-104000000D03*
%TO.N,/CS_MAX31855*%
X127500000Y-110500000D03*
X130512299Y-109987701D03*
%TD*%
D14*
%TO.N,GND*%
X128000000Y-113000000D02*
X128000000Y-116140000D01*
X128000000Y-116140000D02*
X132460000Y-120600000D01*
%TO.N,/SCK*%
X132460000Y-105360000D02*
X129924160Y-107895840D01*
X109395840Y-107895840D02*
X109000000Y-107500000D01*
X129924160Y-107895840D02*
X109395840Y-107895840D01*
%TO.N,/MISO*%
X135000000Y-105360000D02*
X133635000Y-103995000D01*
X112684160Y-102815840D02*
X111500000Y-104000000D01*
X133635000Y-103995000D02*
X125995000Y-103995000D01*
X124815840Y-102815840D02*
X112684160Y-102815840D01*
X125995000Y-103995000D02*
X124815840Y-102815840D01*
%TO.N,/MAIN_SWITCH_IN*%
X122998720Y-109120000D02*
X131240000Y-109120000D01*
X131240000Y-109120000D02*
X132460000Y-107900000D01*
%TO.N,/CS_MAX31855*%
X130000000Y-110500000D02*
X127500000Y-110500000D01*
X130512299Y-109987701D02*
X130000000Y-110500000D01*
%TO.N,/K_MINUS*%
X116740000Y-116740000D02*
X118000000Y-116740000D01*
%TD*%
M02*
