M48
; DRILL file {KiCad 7.0.9} date Fri 12 Jan 2024 10:07:52 PM CET
; FORMAT={-:-/ absolute / inch / decimal}
; #@! TF.CreationDate,2024-01-12T22:07:52+01:00
; #@! TF.GenerationSoftware,Kicad,Pcbnew,7.0.9
; #@! TF.FileFunction,Plated,1,2,PTH
FMAT,2
INCH
; #@! TA.AperFunction,Plated,PTH,ViaDrill
T1C0.0157
; #@! TA.AperFunction,Plated,PTH,ComponentDrill
T2C0.0394
; #@! TA.AperFunction,Plated,PTH,ComponentDrill
T3C0.0472
%
G90
G05
T1
X4.2913Y-4.2323
X4.3898Y-4.0945
X5.0197Y-4.3504
X5.0394Y-4.4488
X5.1383Y-4.3302
T2
X3.9551Y-3.848
X3.9551Y-3.948
X3.9551Y-4.048
X3.9551Y-4.148
X3.9551Y-4.248
X3.9551Y-4.348
X3.9551Y-4.448
X3.9551Y-4.548
X3.9551Y-4.648
X3.9551Y-4.748
X4.0551Y-3.848
X4.0551Y-3.948
X4.0551Y-4.048
X4.0551Y-4.148
X4.0551Y-4.248
X4.0551Y-4.348
X4.0551Y-4.448
X4.0551Y-4.548
X4.0551Y-4.648
X4.0551Y-4.748
X5.215Y-3.848
X5.215Y-3.948
X5.215Y-4.048
X5.215Y-4.148
X5.215Y-4.248
X5.215Y-4.348
X5.215Y-4.448
X5.215Y-4.548
X5.215Y-4.648
X5.215Y-4.748
X5.315Y-3.848
X5.315Y-3.948
X5.315Y-4.048
X5.315Y-4.148
X5.315Y-4.248
X5.315Y-4.348
X5.315Y-4.448
X5.315Y-4.548
X5.315Y-4.648
X5.315Y-4.748
T3
X4.6457Y-3.9961
X4.6457Y-4.0961
X4.6457Y-4.1961
X4.6457Y-4.2961
X4.6457Y-4.3961
X4.6457Y-4.4961
X4.6457Y-4.5961
X4.6457Y-4.6961
X4.8425Y-3.9961
X4.8425Y-4.0961
X4.8425Y-4.1961
X4.8425Y-4.2961
X4.8425Y-4.3961
X4.8425Y-4.4961
X4.8425Y-4.5961
X4.8425Y-4.6961
T0
M30
