%TF.GenerationSoftware,KiCad,Pcbnew,7.0.9*%
%TF.CreationDate,2024-01-12T22:07:47+01:00*%
%TF.ProjectId,board,626f6172-642e-46b6-9963-61645f706362,rev?*%
%TF.SameCoordinates,Original*%
%TF.FileFunction,Legend,Top*%
%TF.FilePolarity,Positive*%
%FSLAX46Y46*%
G04 Gerber Fmt 4.6, Leading zero omitted, Abs format (unit mm)*
G04 Created by KiCad (PCBNEW 7.0.9) date 2024-01-12 22:07:47*
%MOMM*%
%LPD*%
G01*
G04 APERTURE LIST*
%ADD10C,0.150000*%
%ADD11C,0.120000*%
G04 APERTURE END LIST*
D10*
X127336779Y-119869819D02*
X127336779Y-118869819D01*
X127908207Y-119869819D02*
X127479636Y-119298390D01*
X127908207Y-118869819D02*
X127336779Y-119441247D01*
X128336779Y-119488866D02*
X129098684Y-119488866D01*
X128717731Y-119869819D02*
X128717731Y-119107914D01*
X127860588Y-106167438D02*
X127765350Y-106119819D01*
X127765350Y-106119819D02*
X127622493Y-106119819D01*
X127622493Y-106119819D02*
X127479636Y-106167438D01*
X127479636Y-106167438D02*
X127384398Y-106262676D01*
X127384398Y-106262676D02*
X127336779Y-106357914D01*
X127336779Y-106357914D02*
X127289160Y-106548390D01*
X127289160Y-106548390D02*
X127289160Y-106691247D01*
X127289160Y-106691247D02*
X127336779Y-106881723D01*
X127336779Y-106881723D02*
X127384398Y-106976961D01*
X127384398Y-106976961D02*
X127479636Y-107072200D01*
X127479636Y-107072200D02*
X127622493Y-107119819D01*
X127622493Y-107119819D02*
X127717731Y-107119819D01*
X127717731Y-107119819D02*
X127860588Y-107072200D01*
X127860588Y-107072200D02*
X127908207Y-107024580D01*
X127908207Y-107024580D02*
X127908207Y-106691247D01*
X127908207Y-106691247D02*
X127717731Y-106691247D01*
X128336779Y-107119819D02*
X128336779Y-106119819D01*
X128336779Y-106119819D02*
X128908207Y-107119819D01*
X128908207Y-107119819D02*
X128908207Y-106119819D01*
X129384398Y-107119819D02*
X129384398Y-106119819D01*
X129384398Y-106119819D02*
X129622493Y-106119819D01*
X129622493Y-106119819D02*
X129765350Y-106167438D01*
X129765350Y-106167438D02*
X129860588Y-106262676D01*
X129860588Y-106262676D02*
X129908207Y-106357914D01*
X129908207Y-106357914D02*
X129955826Y-106548390D01*
X129955826Y-106548390D02*
X129955826Y-106691247D01*
X129955826Y-106691247D02*
X129908207Y-106881723D01*
X129908207Y-106881723D02*
X129860588Y-106976961D01*
X129860588Y-106976961D02*
X129765350Y-107072200D01*
X129765350Y-107072200D02*
X129622493Y-107119819D01*
X129622493Y-107119819D02*
X129384398Y-107119819D01*
X114265350Y-96593152D02*
X114265350Y-97402676D01*
X114265350Y-97402676D02*
X114217731Y-97497914D01*
X114217731Y-97497914D02*
X114170112Y-97545533D01*
X114170112Y-97545533D02*
X114074874Y-97593152D01*
X114074874Y-97593152D02*
X113932017Y-97593152D01*
X113932017Y-97593152D02*
X113836779Y-97545533D01*
X114265350Y-97212200D02*
X114170112Y-97259819D01*
X114170112Y-97259819D02*
X113979636Y-97259819D01*
X113979636Y-97259819D02*
X113884398Y-97212200D01*
X113884398Y-97212200D02*
X113836779Y-97164580D01*
X113836779Y-97164580D02*
X113789160Y-97069342D01*
X113789160Y-97069342D02*
X113789160Y-96783628D01*
X113789160Y-96783628D02*
X113836779Y-96688390D01*
X113836779Y-96688390D02*
X113884398Y-96640771D01*
X113884398Y-96640771D02*
X113979636Y-96593152D01*
X113979636Y-96593152D02*
X114170112Y-96593152D01*
X114170112Y-96593152D02*
X114265350Y-96640771D01*
X115170112Y-97259819D02*
X115170112Y-96736009D01*
X115170112Y-96736009D02*
X115122493Y-96640771D01*
X115122493Y-96640771D02*
X115027255Y-96593152D01*
X115027255Y-96593152D02*
X114836779Y-96593152D01*
X114836779Y-96593152D02*
X114741541Y-96640771D01*
X115170112Y-97212200D02*
X115074874Y-97259819D01*
X115074874Y-97259819D02*
X114836779Y-97259819D01*
X114836779Y-97259819D02*
X114741541Y-97212200D01*
X114741541Y-97212200D02*
X114693922Y-97116961D01*
X114693922Y-97116961D02*
X114693922Y-97021723D01*
X114693922Y-97021723D02*
X114741541Y-96926485D01*
X114741541Y-96926485D02*
X114836779Y-96878866D01*
X114836779Y-96878866D02*
X115074874Y-96878866D01*
X115074874Y-96878866D02*
X115170112Y-96831247D01*
X116074874Y-96593152D02*
X116074874Y-97402676D01*
X116074874Y-97402676D02*
X116027255Y-97497914D01*
X116027255Y-97497914D02*
X115979636Y-97545533D01*
X115979636Y-97545533D02*
X115884398Y-97593152D01*
X115884398Y-97593152D02*
X115741541Y-97593152D01*
X115741541Y-97593152D02*
X115646303Y-97545533D01*
X116074874Y-97212200D02*
X115979636Y-97259819D01*
X115979636Y-97259819D02*
X115789160Y-97259819D01*
X115789160Y-97259819D02*
X115693922Y-97212200D01*
X115693922Y-97212200D02*
X115646303Y-97164580D01*
X115646303Y-97164580D02*
X115598684Y-97069342D01*
X115598684Y-97069342D02*
X115598684Y-96783628D01*
X115598684Y-96783628D02*
X115646303Y-96688390D01*
X115646303Y-96688390D02*
X115693922Y-96640771D01*
X115693922Y-96640771D02*
X115789160Y-96593152D01*
X115789160Y-96593152D02*
X115979636Y-96593152D01*
X115979636Y-96593152D02*
X116074874Y-96640771D01*
X116979636Y-96593152D02*
X116979636Y-97402676D01*
X116979636Y-97402676D02*
X116932017Y-97497914D01*
X116932017Y-97497914D02*
X116884398Y-97545533D01*
X116884398Y-97545533D02*
X116789160Y-97593152D01*
X116789160Y-97593152D02*
X116646303Y-97593152D01*
X116646303Y-97593152D02*
X116551065Y-97545533D01*
X116979636Y-97212200D02*
X116884398Y-97259819D01*
X116884398Y-97259819D02*
X116693922Y-97259819D01*
X116693922Y-97259819D02*
X116598684Y-97212200D01*
X116598684Y-97212200D02*
X116551065Y-97164580D01*
X116551065Y-97164580D02*
X116503446Y-97069342D01*
X116503446Y-97069342D02*
X116503446Y-96783628D01*
X116503446Y-96783628D02*
X116551065Y-96688390D01*
X116551065Y-96688390D02*
X116598684Y-96640771D01*
X116598684Y-96640771D02*
X116693922Y-96593152D01*
X116693922Y-96593152D02*
X116884398Y-96593152D01*
X116884398Y-96593152D02*
X116979636Y-96640771D01*
X117455827Y-97259819D02*
X117455827Y-96593152D01*
X117455827Y-96259819D02*
X117408208Y-96307438D01*
X117408208Y-96307438D02*
X117455827Y-96355057D01*
X117455827Y-96355057D02*
X117503446Y-96307438D01*
X117503446Y-96307438D02*
X117455827Y-96259819D01*
X117455827Y-96259819D02*
X117455827Y-96355057D01*
X118360588Y-97259819D02*
X118360588Y-96736009D01*
X118360588Y-96736009D02*
X118312969Y-96640771D01*
X118312969Y-96640771D02*
X118217731Y-96593152D01*
X118217731Y-96593152D02*
X118027255Y-96593152D01*
X118027255Y-96593152D02*
X117932017Y-96640771D01*
X118360588Y-97212200D02*
X118265350Y-97259819D01*
X118265350Y-97259819D02*
X118027255Y-97259819D01*
X118027255Y-97259819D02*
X117932017Y-97212200D01*
X117932017Y-97212200D02*
X117884398Y-97116961D01*
X117884398Y-97116961D02*
X117884398Y-97021723D01*
X117884398Y-97021723D02*
X117932017Y-96926485D01*
X117932017Y-96926485D02*
X118027255Y-96878866D01*
X118027255Y-96878866D02*
X118265350Y-96878866D01*
X118265350Y-96878866D02*
X118360588Y-96831247D01*
X120027255Y-97212200D02*
X119932017Y-97259819D01*
X119932017Y-97259819D02*
X119741541Y-97259819D01*
X119741541Y-97259819D02*
X119646303Y-97212200D01*
X119646303Y-97212200D02*
X119598684Y-97164580D01*
X119598684Y-97164580D02*
X119551065Y-97069342D01*
X119551065Y-97069342D02*
X119551065Y-96783628D01*
X119551065Y-96783628D02*
X119598684Y-96688390D01*
X119598684Y-96688390D02*
X119646303Y-96640771D01*
X119646303Y-96640771D02*
X119741541Y-96593152D01*
X119741541Y-96593152D02*
X119932017Y-96593152D01*
X119932017Y-96593152D02*
X120027255Y-96640771D01*
X120598684Y-97259819D02*
X120503446Y-97212200D01*
X120503446Y-97212200D02*
X120455827Y-97164580D01*
X120455827Y-97164580D02*
X120408208Y-97069342D01*
X120408208Y-97069342D02*
X120408208Y-96783628D01*
X120408208Y-96783628D02*
X120455827Y-96688390D01*
X120455827Y-96688390D02*
X120503446Y-96640771D01*
X120503446Y-96640771D02*
X120598684Y-96593152D01*
X120598684Y-96593152D02*
X120741541Y-96593152D01*
X120741541Y-96593152D02*
X120836779Y-96640771D01*
X120836779Y-96640771D02*
X120884398Y-96688390D01*
X120884398Y-96688390D02*
X120932017Y-96783628D01*
X120932017Y-96783628D02*
X120932017Y-97069342D01*
X120932017Y-97069342D02*
X120884398Y-97164580D01*
X120884398Y-97164580D02*
X120836779Y-97212200D01*
X120836779Y-97212200D02*
X120741541Y-97259819D01*
X120741541Y-97259819D02*
X120598684Y-97259819D01*
X121360589Y-97259819D02*
X121360589Y-96593152D01*
X121360589Y-96783628D02*
X121408208Y-96688390D01*
X121408208Y-96688390D02*
X121455827Y-96640771D01*
X121455827Y-96640771D02*
X121551065Y-96593152D01*
X121551065Y-96593152D02*
X121646303Y-96593152D01*
X121836780Y-96593152D02*
X122217732Y-96593152D01*
X121979637Y-96259819D02*
X121979637Y-97116961D01*
X121979637Y-97116961D02*
X122027256Y-97212200D01*
X122027256Y-97212200D02*
X122122494Y-97259819D01*
X122122494Y-97259819D02*
X122217732Y-97259819D01*
X122932018Y-97212200D02*
X122836780Y-97259819D01*
X122836780Y-97259819D02*
X122646304Y-97259819D01*
X122646304Y-97259819D02*
X122551066Y-97212200D01*
X122551066Y-97212200D02*
X122503447Y-97116961D01*
X122503447Y-97116961D02*
X122503447Y-96736009D01*
X122503447Y-96736009D02*
X122551066Y-96640771D01*
X122551066Y-96640771D02*
X122646304Y-96593152D01*
X122646304Y-96593152D02*
X122836780Y-96593152D01*
X122836780Y-96593152D02*
X122932018Y-96640771D01*
X122932018Y-96640771D02*
X122979637Y-96736009D01*
X122979637Y-96736009D02*
X122979637Y-96831247D01*
X122979637Y-96831247D02*
X122503447Y-96926485D01*
X123312971Y-97259819D02*
X123836780Y-96593152D01*
X123312971Y-96593152D02*
X123836780Y-97259819D01*
X124884400Y-96593152D02*
X125122495Y-97259819D01*
X125122495Y-97259819D02*
X125360590Y-96593152D01*
X126265352Y-97259819D02*
X125693924Y-97259819D01*
X125979638Y-97259819D02*
X125979638Y-96259819D01*
X125979638Y-96259819D02*
X125884400Y-96402676D01*
X125884400Y-96402676D02*
X125789162Y-96497914D01*
X125789162Y-96497914D02*
X125693924Y-96545533D01*
X126693924Y-97164580D02*
X126741543Y-97212200D01*
X126741543Y-97212200D02*
X126693924Y-97259819D01*
X126693924Y-97259819D02*
X126646305Y-97212200D01*
X126646305Y-97212200D02*
X126693924Y-97164580D01*
X126693924Y-97164580D02*
X126693924Y-97259819D01*
X127693923Y-97259819D02*
X127122495Y-97259819D01*
X127408209Y-97259819D02*
X127408209Y-96259819D01*
X127408209Y-96259819D02*
X127312971Y-96402676D01*
X127312971Y-96402676D02*
X127217733Y-96497914D01*
X127217733Y-96497914D02*
X127122495Y-96545533D01*
X128122495Y-97164580D02*
X128170114Y-97212200D01*
X128170114Y-97212200D02*
X128122495Y-97259819D01*
X128122495Y-97259819D02*
X128074876Y-97212200D01*
X128074876Y-97212200D02*
X128122495Y-97164580D01*
X128122495Y-97164580D02*
X128122495Y-97259819D01*
X128789161Y-96259819D02*
X128884399Y-96259819D01*
X128884399Y-96259819D02*
X128979637Y-96307438D01*
X128979637Y-96307438D02*
X129027256Y-96355057D01*
X129027256Y-96355057D02*
X129074875Y-96450295D01*
X129074875Y-96450295D02*
X129122494Y-96640771D01*
X129122494Y-96640771D02*
X129122494Y-96878866D01*
X129122494Y-96878866D02*
X129074875Y-97069342D01*
X129074875Y-97069342D02*
X129027256Y-97164580D01*
X129027256Y-97164580D02*
X128979637Y-97212200D01*
X128979637Y-97212200D02*
X128884399Y-97259819D01*
X128884399Y-97259819D02*
X128789161Y-97259819D01*
X128789161Y-97259819D02*
X128693923Y-97212200D01*
X128693923Y-97212200D02*
X128646304Y-97164580D01*
X128646304Y-97164580D02*
X128598685Y-97069342D01*
X128598685Y-97069342D02*
X128551066Y-96878866D01*
X128551066Y-96878866D02*
X128551066Y-96640771D01*
X128551066Y-96640771D02*
X128598685Y-96450295D01*
X128598685Y-96450295D02*
X128646304Y-96355057D01*
X128646304Y-96355057D02*
X128693923Y-96307438D01*
X128693923Y-96307438D02*
X128789161Y-96259819D01*
X113789160Y-98822200D02*
X113884398Y-98869819D01*
X113884398Y-98869819D02*
X114074874Y-98869819D01*
X114074874Y-98869819D02*
X114170112Y-98822200D01*
X114170112Y-98822200D02*
X114217731Y-98726961D01*
X114217731Y-98726961D02*
X114217731Y-98679342D01*
X114217731Y-98679342D02*
X114170112Y-98584104D01*
X114170112Y-98584104D02*
X114074874Y-98536485D01*
X114074874Y-98536485D02*
X113932017Y-98536485D01*
X113932017Y-98536485D02*
X113836779Y-98488866D01*
X113836779Y-98488866D02*
X113789160Y-98393628D01*
X113789160Y-98393628D02*
X113789160Y-98346009D01*
X113789160Y-98346009D02*
X113836779Y-98250771D01*
X113836779Y-98250771D02*
X113932017Y-98203152D01*
X113932017Y-98203152D02*
X114074874Y-98203152D01*
X114074874Y-98203152D02*
X114170112Y-98250771D01*
X114789160Y-98869819D02*
X114693922Y-98822200D01*
X114693922Y-98822200D02*
X114646303Y-98774580D01*
X114646303Y-98774580D02*
X114598684Y-98679342D01*
X114598684Y-98679342D02*
X114598684Y-98393628D01*
X114598684Y-98393628D02*
X114646303Y-98298390D01*
X114646303Y-98298390D02*
X114693922Y-98250771D01*
X114693922Y-98250771D02*
X114789160Y-98203152D01*
X114789160Y-98203152D02*
X114932017Y-98203152D01*
X114932017Y-98203152D02*
X115027255Y-98250771D01*
X115027255Y-98250771D02*
X115074874Y-98298390D01*
X115074874Y-98298390D02*
X115122493Y-98393628D01*
X115122493Y-98393628D02*
X115122493Y-98679342D01*
X115122493Y-98679342D02*
X115074874Y-98774580D01*
X115074874Y-98774580D02*
X115027255Y-98822200D01*
X115027255Y-98822200D02*
X114932017Y-98869819D01*
X114932017Y-98869819D02*
X114789160Y-98869819D01*
X115979636Y-98203152D02*
X115979636Y-98869819D01*
X115551065Y-98203152D02*
X115551065Y-98726961D01*
X115551065Y-98726961D02*
X115598684Y-98822200D01*
X115598684Y-98822200D02*
X115693922Y-98869819D01*
X115693922Y-98869819D02*
X115836779Y-98869819D01*
X115836779Y-98869819D02*
X115932017Y-98822200D01*
X115932017Y-98822200D02*
X115979636Y-98774580D01*
X116455827Y-98869819D02*
X116455827Y-98203152D01*
X116455827Y-98393628D02*
X116503446Y-98298390D01*
X116503446Y-98298390D02*
X116551065Y-98250771D01*
X116551065Y-98250771D02*
X116646303Y-98203152D01*
X116646303Y-98203152D02*
X116741541Y-98203152D01*
X117503446Y-98822200D02*
X117408208Y-98869819D01*
X117408208Y-98869819D02*
X117217732Y-98869819D01*
X117217732Y-98869819D02*
X117122494Y-98822200D01*
X117122494Y-98822200D02*
X117074875Y-98774580D01*
X117074875Y-98774580D02*
X117027256Y-98679342D01*
X117027256Y-98679342D02*
X117027256Y-98393628D01*
X117027256Y-98393628D02*
X117074875Y-98298390D01*
X117074875Y-98298390D02*
X117122494Y-98250771D01*
X117122494Y-98250771D02*
X117217732Y-98203152D01*
X117217732Y-98203152D02*
X117408208Y-98203152D01*
X117408208Y-98203152D02*
X117503446Y-98250771D01*
X118312970Y-98822200D02*
X118217732Y-98869819D01*
X118217732Y-98869819D02*
X118027256Y-98869819D01*
X118027256Y-98869819D02*
X117932018Y-98822200D01*
X117932018Y-98822200D02*
X117884399Y-98726961D01*
X117884399Y-98726961D02*
X117884399Y-98346009D01*
X117884399Y-98346009D02*
X117932018Y-98250771D01*
X117932018Y-98250771D02*
X118027256Y-98203152D01*
X118027256Y-98203152D02*
X118217732Y-98203152D01*
X118217732Y-98203152D02*
X118312970Y-98250771D01*
X118312970Y-98250771D02*
X118360589Y-98346009D01*
X118360589Y-98346009D02*
X118360589Y-98441247D01*
X118360589Y-98441247D02*
X117884399Y-98536485D01*
X119217732Y-98869819D02*
X119217732Y-97869819D01*
X119217732Y-98822200D02*
X119122494Y-98869819D01*
X119122494Y-98869819D02*
X118932018Y-98869819D01*
X118932018Y-98869819D02*
X118836780Y-98822200D01*
X118836780Y-98822200D02*
X118789161Y-98774580D01*
X118789161Y-98774580D02*
X118741542Y-98679342D01*
X118741542Y-98679342D02*
X118741542Y-98393628D01*
X118741542Y-98393628D02*
X118789161Y-98298390D01*
X118789161Y-98298390D02*
X118836780Y-98250771D01*
X118836780Y-98250771D02*
X118932018Y-98203152D01*
X118932018Y-98203152D02*
X119122494Y-98203152D01*
X119122494Y-98203152D02*
X119217732Y-98250771D01*
X119693923Y-98869819D02*
X119693923Y-98203152D01*
X119693923Y-97869819D02*
X119646304Y-97917438D01*
X119646304Y-97917438D02*
X119693923Y-97965057D01*
X119693923Y-97965057D02*
X119741542Y-97917438D01*
X119741542Y-97917438D02*
X119693923Y-97869819D01*
X119693923Y-97869819D02*
X119693923Y-97965057D01*
X120074875Y-98203152D02*
X120312970Y-98869819D01*
X120312970Y-98869819D02*
X120551065Y-98203152D01*
X121312970Y-98822200D02*
X121217732Y-98869819D01*
X121217732Y-98869819D02*
X121027256Y-98869819D01*
X121027256Y-98869819D02*
X120932018Y-98822200D01*
X120932018Y-98822200D02*
X120884399Y-98726961D01*
X120884399Y-98726961D02*
X120884399Y-98346009D01*
X120884399Y-98346009D02*
X120932018Y-98250771D01*
X120932018Y-98250771D02*
X121027256Y-98203152D01*
X121027256Y-98203152D02*
X121217732Y-98203152D01*
X121217732Y-98203152D02*
X121312970Y-98250771D01*
X121312970Y-98250771D02*
X121360589Y-98346009D01*
X121360589Y-98346009D02*
X121360589Y-98441247D01*
X121360589Y-98441247D02*
X120884399Y-98536485D01*
X121789161Y-98869819D02*
X121789161Y-98203152D01*
X121789161Y-98393628D02*
X121836780Y-98298390D01*
X121836780Y-98298390D02*
X121884399Y-98250771D01*
X121884399Y-98250771D02*
X121979637Y-98203152D01*
X121979637Y-98203152D02*
X122074875Y-98203152D01*
X122408209Y-98774580D02*
X122455828Y-98822200D01*
X122455828Y-98822200D02*
X122408209Y-98869819D01*
X122408209Y-98869819D02*
X122360590Y-98822200D01*
X122360590Y-98822200D02*
X122408209Y-98774580D01*
X122408209Y-98774580D02*
X122408209Y-98869819D01*
X123027256Y-98869819D02*
X122932018Y-98822200D01*
X122932018Y-98822200D02*
X122884399Y-98774580D01*
X122884399Y-98774580D02*
X122836780Y-98679342D01*
X122836780Y-98679342D02*
X122836780Y-98393628D01*
X122836780Y-98393628D02*
X122884399Y-98298390D01*
X122884399Y-98298390D02*
X122932018Y-98250771D01*
X122932018Y-98250771D02*
X123027256Y-98203152D01*
X123027256Y-98203152D02*
X123170113Y-98203152D01*
X123170113Y-98203152D02*
X123265351Y-98250771D01*
X123265351Y-98250771D02*
X123312970Y-98298390D01*
X123312970Y-98298390D02*
X123360589Y-98393628D01*
X123360589Y-98393628D02*
X123360589Y-98679342D01*
X123360589Y-98679342D02*
X123312970Y-98774580D01*
X123312970Y-98774580D02*
X123265351Y-98822200D01*
X123265351Y-98822200D02*
X123170113Y-98869819D01*
X123170113Y-98869819D02*
X123027256Y-98869819D01*
X123789161Y-98869819D02*
X123789161Y-98203152D01*
X123789161Y-98393628D02*
X123836780Y-98298390D01*
X123836780Y-98298390D02*
X123884399Y-98250771D01*
X123884399Y-98250771D02*
X123979637Y-98203152D01*
X123979637Y-98203152D02*
X124074875Y-98203152D01*
X124836780Y-98203152D02*
X124836780Y-99012676D01*
X124836780Y-99012676D02*
X124789161Y-99107914D01*
X124789161Y-99107914D02*
X124741542Y-99155533D01*
X124741542Y-99155533D02*
X124646304Y-99203152D01*
X124646304Y-99203152D02*
X124503447Y-99203152D01*
X124503447Y-99203152D02*
X124408209Y-99155533D01*
X124836780Y-98822200D02*
X124741542Y-98869819D01*
X124741542Y-98869819D02*
X124551066Y-98869819D01*
X124551066Y-98869819D02*
X124455828Y-98822200D01*
X124455828Y-98822200D02*
X124408209Y-98774580D01*
X124408209Y-98774580D02*
X124360590Y-98679342D01*
X124360590Y-98679342D02*
X124360590Y-98393628D01*
X124360590Y-98393628D02*
X124408209Y-98298390D01*
X124408209Y-98298390D02*
X124455828Y-98250771D01*
X124455828Y-98250771D02*
X124551066Y-98203152D01*
X124551066Y-98203152D02*
X124741542Y-98203152D01*
X124741542Y-98203152D02*
X124836780Y-98250771D01*
X127860588Y-100917438D02*
X127765350Y-100869819D01*
X127765350Y-100869819D02*
X127622493Y-100869819D01*
X127622493Y-100869819D02*
X127479636Y-100917438D01*
X127479636Y-100917438D02*
X127384398Y-101012676D01*
X127384398Y-101012676D02*
X127336779Y-101107914D01*
X127336779Y-101107914D02*
X127289160Y-101298390D01*
X127289160Y-101298390D02*
X127289160Y-101441247D01*
X127289160Y-101441247D02*
X127336779Y-101631723D01*
X127336779Y-101631723D02*
X127384398Y-101726961D01*
X127384398Y-101726961D02*
X127479636Y-101822200D01*
X127479636Y-101822200D02*
X127622493Y-101869819D01*
X127622493Y-101869819D02*
X127717731Y-101869819D01*
X127717731Y-101869819D02*
X127860588Y-101822200D01*
X127860588Y-101822200D02*
X127908207Y-101774580D01*
X127908207Y-101774580D02*
X127908207Y-101441247D01*
X127908207Y-101441247D02*
X127717731Y-101441247D01*
X128336779Y-101869819D02*
X128336779Y-100869819D01*
X128336779Y-100869819D02*
X128908207Y-101869819D01*
X128908207Y-101869819D02*
X128908207Y-100869819D01*
X129384398Y-101869819D02*
X129384398Y-100869819D01*
X129384398Y-100869819D02*
X129622493Y-100869819D01*
X129622493Y-100869819D02*
X129765350Y-100917438D01*
X129765350Y-100917438D02*
X129860588Y-101012676D01*
X129860588Y-101012676D02*
X129908207Y-101107914D01*
X129908207Y-101107914D02*
X129955826Y-101298390D01*
X129955826Y-101298390D02*
X129955826Y-101441247D01*
X129955826Y-101441247D02*
X129908207Y-101631723D01*
X129908207Y-101631723D02*
X129860588Y-101726961D01*
X129860588Y-101726961D02*
X129765350Y-101822200D01*
X129765350Y-101822200D02*
X129622493Y-101869819D01*
X129622493Y-101869819D02*
X129384398Y-101869819D01*
X127289160Y-104572200D02*
X127432017Y-104619819D01*
X127432017Y-104619819D02*
X127670112Y-104619819D01*
X127670112Y-104619819D02*
X127765350Y-104572200D01*
X127765350Y-104572200D02*
X127812969Y-104524580D01*
X127812969Y-104524580D02*
X127860588Y-104429342D01*
X127860588Y-104429342D02*
X127860588Y-104334104D01*
X127860588Y-104334104D02*
X127812969Y-104238866D01*
X127812969Y-104238866D02*
X127765350Y-104191247D01*
X127765350Y-104191247D02*
X127670112Y-104143628D01*
X127670112Y-104143628D02*
X127479636Y-104096009D01*
X127479636Y-104096009D02*
X127384398Y-104048390D01*
X127384398Y-104048390D02*
X127336779Y-104000771D01*
X127336779Y-104000771D02*
X127289160Y-103905533D01*
X127289160Y-103905533D02*
X127289160Y-103810295D01*
X127289160Y-103810295D02*
X127336779Y-103715057D01*
X127336779Y-103715057D02*
X127384398Y-103667438D01*
X127384398Y-103667438D02*
X127479636Y-103619819D01*
X127479636Y-103619819D02*
X127717731Y-103619819D01*
X127717731Y-103619819D02*
X127860588Y-103667438D01*
X128241541Y-104572200D02*
X128384398Y-104619819D01*
X128384398Y-104619819D02*
X128622493Y-104619819D01*
X128622493Y-104619819D02*
X128717731Y-104572200D01*
X128717731Y-104572200D02*
X128765350Y-104524580D01*
X128765350Y-104524580D02*
X128812969Y-104429342D01*
X128812969Y-104429342D02*
X128812969Y-104334104D01*
X128812969Y-104334104D02*
X128765350Y-104238866D01*
X128765350Y-104238866D02*
X128717731Y-104191247D01*
X128717731Y-104191247D02*
X128622493Y-104143628D01*
X128622493Y-104143628D02*
X128432017Y-104096009D01*
X128432017Y-104096009D02*
X128336779Y-104048390D01*
X128336779Y-104048390D02*
X128289160Y-104000771D01*
X128289160Y-104000771D02*
X128241541Y-103905533D01*
X128241541Y-103905533D02*
X128241541Y-103810295D01*
X128241541Y-103810295D02*
X128289160Y-103715057D01*
X128289160Y-103715057D02*
X128336779Y-103667438D01*
X128336779Y-103667438D02*
X128432017Y-103619819D01*
X128432017Y-103619819D02*
X128670112Y-103619819D01*
X128670112Y-103619819D02*
X128812969Y-103667438D01*
X129812969Y-104619819D02*
X129479636Y-104143628D01*
X129241541Y-104619819D02*
X129241541Y-103619819D01*
X129241541Y-103619819D02*
X129622493Y-103619819D01*
X129622493Y-103619819D02*
X129717731Y-103667438D01*
X129717731Y-103667438D02*
X129765350Y-103715057D01*
X129765350Y-103715057D02*
X129812969Y-103810295D01*
X129812969Y-103810295D02*
X129812969Y-103953152D01*
X129812969Y-103953152D02*
X129765350Y-104048390D01*
X129765350Y-104048390D02*
X129717731Y-104096009D01*
X129717731Y-104096009D02*
X129622493Y-104143628D01*
X129622493Y-104143628D02*
X129241541Y-104143628D01*
X127860588Y-111167438D02*
X127765350Y-111119819D01*
X127765350Y-111119819D02*
X127622493Y-111119819D01*
X127622493Y-111119819D02*
X127479636Y-111167438D01*
X127479636Y-111167438D02*
X127384398Y-111262676D01*
X127384398Y-111262676D02*
X127336779Y-111357914D01*
X127336779Y-111357914D02*
X127289160Y-111548390D01*
X127289160Y-111548390D02*
X127289160Y-111691247D01*
X127289160Y-111691247D02*
X127336779Y-111881723D01*
X127336779Y-111881723D02*
X127384398Y-111976961D01*
X127384398Y-111976961D02*
X127479636Y-112072200D01*
X127479636Y-112072200D02*
X127622493Y-112119819D01*
X127622493Y-112119819D02*
X127717731Y-112119819D01*
X127717731Y-112119819D02*
X127860588Y-112072200D01*
X127860588Y-112072200D02*
X127908207Y-112024580D01*
X127908207Y-112024580D02*
X127908207Y-111691247D01*
X127908207Y-111691247D02*
X127717731Y-111691247D01*
X128336779Y-112119819D02*
X128336779Y-111119819D01*
X128336779Y-111119819D02*
X128908207Y-112119819D01*
X128908207Y-112119819D02*
X128908207Y-111119819D01*
X129384398Y-112119819D02*
X129384398Y-111119819D01*
X129384398Y-111119819D02*
X129622493Y-111119819D01*
X129622493Y-111119819D02*
X129765350Y-111167438D01*
X129765350Y-111167438D02*
X129860588Y-111262676D01*
X129860588Y-111262676D02*
X129908207Y-111357914D01*
X129908207Y-111357914D02*
X129955826Y-111548390D01*
X129955826Y-111548390D02*
X129955826Y-111691247D01*
X129955826Y-111691247D02*
X129908207Y-111881723D01*
X129908207Y-111881723D02*
X129860588Y-111976961D01*
X129860588Y-111976961D02*
X129765350Y-112072200D01*
X129765350Y-112072200D02*
X129622493Y-112119819D01*
X129622493Y-112119819D02*
X129384398Y-112119819D01*
X127336779Y-109619819D02*
X127336779Y-108619819D01*
X127336779Y-108619819D02*
X127670112Y-109334104D01*
X127670112Y-109334104D02*
X128003445Y-108619819D01*
X128003445Y-108619819D02*
X128003445Y-109619819D01*
X128432017Y-109572200D02*
X128574874Y-109619819D01*
X128574874Y-109619819D02*
X128812969Y-109619819D01*
X128812969Y-109619819D02*
X128908207Y-109572200D01*
X128908207Y-109572200D02*
X128955826Y-109524580D01*
X128955826Y-109524580D02*
X129003445Y-109429342D01*
X129003445Y-109429342D02*
X129003445Y-109334104D01*
X129003445Y-109334104D02*
X128955826Y-109238866D01*
X128955826Y-109238866D02*
X128908207Y-109191247D01*
X128908207Y-109191247D02*
X128812969Y-109143628D01*
X128812969Y-109143628D02*
X128622493Y-109096009D01*
X128622493Y-109096009D02*
X128527255Y-109048390D01*
X128527255Y-109048390D02*
X128479636Y-109000771D01*
X128479636Y-109000771D02*
X128432017Y-108905533D01*
X128432017Y-108905533D02*
X128432017Y-108810295D01*
X128432017Y-108810295D02*
X128479636Y-108715057D01*
X128479636Y-108715057D02*
X128527255Y-108667438D01*
X128527255Y-108667438D02*
X128622493Y-108619819D01*
X128622493Y-108619819D02*
X128860588Y-108619819D01*
X128860588Y-108619819D02*
X129003445Y-108667438D01*
X129336779Y-108619819D02*
X129574874Y-109619819D01*
X129574874Y-109619819D02*
X129765350Y-108905533D01*
X129765350Y-108905533D02*
X129955826Y-109619819D01*
X129955826Y-109619819D02*
X130193922Y-108619819D01*
X127336779Y-114009819D02*
X127336779Y-113009819D01*
X127336779Y-113009819D02*
X127717731Y-113009819D01*
X127717731Y-113009819D02*
X127812969Y-113057438D01*
X127812969Y-113057438D02*
X127860588Y-113105057D01*
X127860588Y-113105057D02*
X127908207Y-113200295D01*
X127908207Y-113200295D02*
X127908207Y-113343152D01*
X127908207Y-113343152D02*
X127860588Y-113438390D01*
X127860588Y-113438390D02*
X127812969Y-113486009D01*
X127812969Y-113486009D02*
X127717731Y-113533628D01*
X127717731Y-113533628D02*
X127336779Y-113533628D01*
X128241541Y-113009819D02*
X128479636Y-114009819D01*
X128479636Y-114009819D02*
X128670112Y-113295533D01*
X128670112Y-113295533D02*
X128860588Y-114009819D01*
X128860588Y-114009819D02*
X129098684Y-113009819D01*
X130051064Y-114009819D02*
X129717731Y-113533628D01*
X129479636Y-114009819D02*
X129479636Y-113009819D01*
X129479636Y-113009819D02*
X129860588Y-113009819D01*
X129860588Y-113009819D02*
X129955826Y-113057438D01*
X129955826Y-113057438D02*
X130003445Y-113105057D01*
X130003445Y-113105057D02*
X130051064Y-113200295D01*
X130051064Y-113200295D02*
X130051064Y-113343152D01*
X130051064Y-113343152D02*
X130003445Y-113438390D01*
X130003445Y-113438390D02*
X129955826Y-113486009D01*
X129955826Y-113486009D02*
X129860588Y-113533628D01*
X129860588Y-113533628D02*
X129479636Y-113533628D01*
X127812969Y-115619819D02*
X127336779Y-115619819D01*
X127336779Y-115619819D02*
X127336779Y-114619819D01*
X128146303Y-115096009D02*
X128479636Y-115096009D01*
X128622493Y-115619819D02*
X128146303Y-115619819D01*
X128146303Y-115619819D02*
X128146303Y-114619819D01*
X128146303Y-114619819D02*
X128622493Y-114619819D01*
X129051065Y-115619819D02*
X129051065Y-114619819D01*
X129051065Y-114619819D02*
X129289160Y-114619819D01*
X129289160Y-114619819D02*
X129432017Y-114667438D01*
X129432017Y-114667438D02*
X129527255Y-114762676D01*
X129527255Y-114762676D02*
X129574874Y-114857914D01*
X129574874Y-114857914D02*
X129622493Y-115048390D01*
X129622493Y-115048390D02*
X129622493Y-115191247D01*
X129622493Y-115191247D02*
X129574874Y-115381723D01*
X129574874Y-115381723D02*
X129527255Y-115476961D01*
X129527255Y-115476961D02*
X129432017Y-115572200D01*
X129432017Y-115572200D02*
X129289160Y-115619819D01*
X129289160Y-115619819D02*
X129051065Y-115619819D01*
X127336779Y-117369819D02*
X127336779Y-116369819D01*
X127908207Y-117369819D02*
X127479636Y-116798390D01*
X127908207Y-116369819D02*
X127336779Y-116941247D01*
X128336779Y-116988866D02*
X129098684Y-116988866D01*
X110353333Y-96429580D02*
X110305714Y-96477200D01*
X110305714Y-96477200D02*
X110162857Y-96524819D01*
X110162857Y-96524819D02*
X110067619Y-96524819D01*
X110067619Y-96524819D02*
X109924762Y-96477200D01*
X109924762Y-96477200D02*
X109829524Y-96381961D01*
X109829524Y-96381961D02*
X109781905Y-96286723D01*
X109781905Y-96286723D02*
X109734286Y-96096247D01*
X109734286Y-96096247D02*
X109734286Y-95953390D01*
X109734286Y-95953390D02*
X109781905Y-95762914D01*
X109781905Y-95762914D02*
X109829524Y-95667676D01*
X109829524Y-95667676D02*
X109924762Y-95572438D01*
X109924762Y-95572438D02*
X110067619Y-95524819D01*
X110067619Y-95524819D02*
X110162857Y-95524819D01*
X110162857Y-95524819D02*
X110305714Y-95572438D01*
X110305714Y-95572438D02*
X110353333Y-95620057D01*
X111305714Y-96524819D02*
X110734286Y-96524819D01*
X111020000Y-96524819D02*
X111020000Y-95524819D01*
X111020000Y-95524819D02*
X110924762Y-95667676D01*
X110924762Y-95667676D02*
X110829524Y-95762914D01*
X110829524Y-95762914D02*
X110734286Y-95810533D01*
X113449819Y-104286904D02*
X114259342Y-104286904D01*
X114259342Y-104286904D02*
X114354580Y-104239285D01*
X114354580Y-104239285D02*
X114402200Y-104191666D01*
X114402200Y-104191666D02*
X114449819Y-104096428D01*
X114449819Y-104096428D02*
X114449819Y-103905952D01*
X114449819Y-103905952D02*
X114402200Y-103810714D01*
X114402200Y-103810714D02*
X114354580Y-103763095D01*
X114354580Y-103763095D02*
X114259342Y-103715476D01*
X114259342Y-103715476D02*
X113449819Y-103715476D01*
X114449819Y-102715476D02*
X114449819Y-103286904D01*
X114449819Y-103001190D02*
X113449819Y-103001190D01*
X113449819Y-103001190D02*
X113592676Y-103096428D01*
X113592676Y-103096428D02*
X113687914Y-103191666D01*
X113687914Y-103191666D02*
X113735533Y-103286904D01*
X132246646Y-94864819D02*
X132246646Y-95579104D01*
X132246646Y-95579104D02*
X132199027Y-95721961D01*
X132199027Y-95721961D02*
X132103789Y-95817200D01*
X132103789Y-95817200D02*
X131960932Y-95864819D01*
X131960932Y-95864819D02*
X131865694Y-95864819D01*
X133246646Y-95864819D02*
X132675218Y-95864819D01*
X132960932Y-95864819D02*
X132960932Y-94864819D01*
X132960932Y-94864819D02*
X132865694Y-95007676D01*
X132865694Y-95007676D02*
X132770456Y-95102914D01*
X132770456Y-95102914D02*
X132675218Y-95150533D01*
X100246646Y-94864819D02*
X100246646Y-95579104D01*
X100246646Y-95579104D02*
X100199027Y-95721961D01*
X100199027Y-95721961D02*
X100103789Y-95817200D01*
X100103789Y-95817200D02*
X99960932Y-95864819D01*
X99960932Y-95864819D02*
X99865694Y-95864819D01*
X100675218Y-94960057D02*
X100722837Y-94912438D01*
X100722837Y-94912438D02*
X100818075Y-94864819D01*
X100818075Y-94864819D02*
X101056170Y-94864819D01*
X101056170Y-94864819D02*
X101151408Y-94912438D01*
X101151408Y-94912438D02*
X101199027Y-94960057D01*
X101199027Y-94960057D02*
X101246646Y-95055295D01*
X101246646Y-95055295D02*
X101246646Y-95150533D01*
X101246646Y-95150533D02*
X101199027Y-95293390D01*
X101199027Y-95293390D02*
X100627599Y-95864819D01*
X100627599Y-95864819D02*
X101246646Y-95864819D01*
D11*
%TO.C,C1*%
X110379420Y-96990000D02*
X110660580Y-96990000D01*
X110379420Y-98010000D02*
X110660580Y-98010000D01*
%TO.C,U1*%
X113155000Y-103525000D02*
X113155000Y-100075000D01*
X113155000Y-103525000D02*
X113155000Y-105475000D01*
X108035000Y-103525000D02*
X108035000Y-101575000D01*
X108035000Y-103525000D02*
X108035000Y-105475000D01*
%TO.C,J1*%
X131130000Y-96410000D02*
X132460000Y-96410000D01*
X131130000Y-97740000D02*
X131130000Y-96410000D01*
X131130000Y-99010000D02*
X131130000Y-121930000D01*
X131130000Y-99010000D02*
X133730000Y-99010000D01*
X131130000Y-121930000D02*
X136330000Y-121930000D01*
X133730000Y-96410000D02*
X136330000Y-96410000D01*
X133730000Y-99010000D02*
X133730000Y-96410000D01*
X136330000Y-96410000D02*
X136330000Y-121930000D01*
%TO.C,J2*%
X99130000Y-96410000D02*
X100460000Y-96410000D01*
X99130000Y-97740000D02*
X99130000Y-96410000D01*
X99130000Y-99010000D02*
X99130000Y-121930000D01*
X99130000Y-99010000D02*
X101730000Y-99010000D01*
X99130000Y-121930000D02*
X104330000Y-121930000D01*
X101730000Y-96410000D02*
X104330000Y-96410000D01*
X101730000Y-99010000D02*
X101730000Y-96410000D01*
X104330000Y-96410000D02*
X104330000Y-121930000D01*
%TD*%
M02*
